# xmcd CD database file
#
# Track frame offsets:
#	150
#	19565
#	35790
#	53188
#	76417
#	94634
#	116540
#	135638
#	158637
#	179783
#	201838
#	215154
#
# Disc length: 3061 seconds
#
# Revision: 0
# Processed by: cddbd v1.5.2PL0 Copyright (c) Steve Scherf et al.
# Submitted via: CDex 1.70beta2
#
DISCID=a70bf30c
DTITLE=Peter Cincotti - On the moon
DYEAR=2004
DGENRE=Jazz
TTITLE0=St. Louis Blues
TTITLE1=Some kind of wonderfull
TTITLE2=I love Paris
TTITLE3=On the moon
TTITLE4=Bali Ha'i
TTITLE5=He's watching
TTITLE6=Raise the roof
TTITLE7=The girl for me tonight
TTITLE8=You don't know me
TTITLE9=I'd rather be with you
TTITLE10=Up on the roof
TTITLE11=Cherokee
EXTD=YEAR: 2004
EXTT0=
EXTT1=
EXTT2=
EXTT3=
EXTT4=
EXTT5=
EXTT6=
EXTT7=
EXTT8=
EXTT9=
EXTT10=
EXTT11=
PLAYORDER=
